PathFileType	4	(X/Y/Z)	s07c0403.trc
DataRate	CameraRate	NumFrames	NumMarkers	Units	OrigDataRate	OrigDataStartFrame	OrigNumFrames
200	200	4	48	mm	200	250	2000
Frame#	Time	racr			lacr			c7			jug			rlel			rdr			llel			ldr			s2			lic			ric			lasi			rasi			rpsi			lpsi			rgt			lgt			rth1			rth2			rth3			rth4			rlfc			rmfc			rsh1			rsh2			rsh3			rsh4			rlmal			rcal			rtoe			rmt5			lth1			lth2			lth4			lth3			llfc			lmfc			lsh1			lsh2			lsh3			lsh4			llmal			lcal			ltoe			lmt5			SBIKE			LBIKE			RBIKE			
		X1	Y1	Z1	X2	Y2	Z2	X3	Y3	Z3	X4	Y4	Z4	X5	Y5	Z5	X6	Y6	Z6	X7	Y7	Z7	X8	Y8	Z8	X9	Y9	Z9	X10	Y10	Z10	X11	Y11	Z11	X12	Y12	Z12	X13	Y13	Z13	X14	Y14	Z14	X15	Y15	Z15	X16	Y16	Z16	X17	Y17	Z17	X18	Y18	Z18	X19	Y19	Z19	X20	Y20	Z20	X21	Y21	Z21	X22	Y22	Z22	X23	Y23	Z23	X24	Y24	Z24	X25	Y25	Z25	X26	Y26	Z26	X27	Y27	Z27	X28	Y28	Z28	X29	Y29	Z29	X30	Y30	Z30	X31	Y31	Z31	X32	Y32	Z32	X33	Y33	Z33	X34	Y34	Z34	X35	Y35	Z35	X36	Y36	Z36	X37	Y37	Z37	X38	Y38	Z38	X39	Y39	Z39	X40	Y40	Z40	X41	Y41	Z41	X42	Y42	Z42	X43	Y43	Z43	X44	Y44	Z44	X45	Y45	Z45	X46	Y46	Z46	X47	Y47	Z47	X48	Y48	Z48	
250	1.2500	443.173799	1437.246373	-100.357141	420.574973	1426.392174	-388.126368	411.478568	1464.446991	-245.312689	379.303784	1324.873412	-240.620843	464.847773	1115.171922	40.725476	688.393874	937.462557	-57.229237	467.245356	1121.057621	-524.590459	689.780720	926.965010	-447.486273	-140.657994	1202.195279	-246.728520	18.576791	1243.579880	-371.864831	30.389416	1231.524874	-93.817066	54.343806	1168.668133	-361.286890	41.862271	1175.423983	-113.387454	-114.097800	1238.959509	-193.994256	-99.477311	1250.004081	-301.873170	-30.775412	1114.469392	-52.003384	-35.187239	1096.838296	-418.917950	108.083072	1044.111358	-51.573845	192.533569	1023.531093	-64.029323	257.601253	967.892085	-63.053021	206.385908	1053.582420	-81.363039	371.066031	883.643474	-97.595094	365.072667	864.439457	-194.724335	329.135170	745.896877	-72.705416	322.432342	658.023679	-91.798571	278.092454	584.094687	-85.609697	338.224188	657.267144	-128.077345	229.115193	457.781126	-85.776423	161.185452	418.762770	-113.060851	449.279556	386.044988	-130.034965	371.768779	355.594613	-58.268078	30.747415	994.581975	-425.025741	105.046846	947.265300	-430.045713	132.040715	971.019675	-422.414243	146.205698	867.982499	-426.490635	249.225440	716.430805	-395.608629	238.489633	702.251389	-296.376116	146.786922	605.393106	-413.717190	101.932267	534.982328	-391.361230	25.294345	488.055032	-399.300092	105.818849	536.937773	-349.629430	-75.805431	398.128242	-396.036444	-156.389358	381.145669	-361.432526	115.629791	282.979796	-358.741640	31.659870	281.942735	-422.225126	-262.456533	964.502574	-237.674880	-83.020626	79.148819	-436.800448	-83.017779	79.111391	-39.381547	
251	1.2550	443.065646	1437.327331	-100.266099	420.549217	1426.445844	-388.016856	411.402983	1464.583083	-245.175410	379.257408	1324.926913	-240.516225	464.835471	1115.218195	40.713697	688.408861	937.448492	-57.238306	467.216771	1121.095630	-524.509990	689.771681	926.963148	-447.464191	-140.720199	1202.207238	-246.728913	18.506673	1243.607429	-371.881437	30.304528	1231.528012	-93.795559	54.303028	1168.695216	-361.263377	41.789699	1175.456952	-113.361187	-114.157588	1238.968221	-194.002211	-99.543194	1250.012468	-301.864204	-30.828291	1114.468690	-52.000259	-35.231642	1096.846388	-418.914248	108.031086	1044.160618	-51.554407	192.475007	1023.571540	-63.974403	257.557169	967.939656	-63.018903	206.343589	1053.631900	-81.320885	370.992516	883.717203	-97.531990	365.060683	864.536110	-194.626010	329.109163	745.971210	-72.674708	322.374384	658.119069	-91.767797	278.068567	584.192833	-85.565331	338.218088	657.337492	-128.029385	229.114954	457.846626	-85.762783	161.175656	418.846398	-113.018759	449.271135	386.127631	-130.009558	371.765234	355.657555	-58.263336	30.679153	994.560077	-425.030637	104.968027	947.242908	-430.070210	131.975595	970.995367	-422.466416	146.115138	867.961980	-426.523443	249.185523	716.432209	-395.646599	238.437119	702.270283	-296.397933	146.742329	605.390254	-413.747107	101.891212	534.975140	-391.410332	25.292162	488.057858	-399.304479	105.814582	536.938245	-349.669075	-75.797891	398.065934	-396.029220	-156.368095	381.083386	-361.435356	115.640021	282.915911	-358.736490	31.668826	281.894174	-422.219645	-262.454222	964.507283	-237.686577	-83.022640	79.161674	-436.794923	-83.015734	79.115583	-39.358328	
252	1.2600	442.966227	1437.395253	-100.159660	420.543857	1426.503933	-387.955306	411.321756	1464.671396	-245.106345	379.227723	1325.013719	-240.400986	464.850334	1115.244304	40.674376	688.411881	937.433341	-57.258732	467.208270	1121.125220	-524.416370	689.762862	926.936311	-447.443367	-140.777495	1202.205293	-246.740667	18.430603	1243.620357	-371.882664	30.201500	1231.530889	-93.801009	54.255076	1168.733761	-361.266351	41.708974	1175.467714	-113.321203	-114.188492	1238.936839	-194.041142	-99.591449	1250.021193	-301.883520	-30.905008	1114.503333	-51.990182	-35.295787	1096.865146	-418.905807	107.948914	1044.238077	-51.534914	192.417539	1023.633146	-63.915287	257.511090	968.008438	-62.937247	206.282964	1053.678391	-81.284795	370.967318	883.801302	-97.463231	365.055527	864.632151	-194.578382	329.058336	746.081696	-72.635475	322.335208	658.182436	-91.728591	278.037150	584.293435	-85.544658	338.214558	657.421572	-127.994236	229.112436	457.936742	-85.759896	161.162933	418.902158	-113.024628	449.235033	386.208726	-129.989619	371.733032	355.755570	-58.251480	30.606523	994.559338	-425.069241	104.901990	947.237830	-430.128263	131.893466	970.998834	-422.537138	146.051068	867.926107	-426.553363	249.128130	716.437645	-395.690397	238.413510	702.274197	-296.453960	146.710823	605.396405	-413.773754	101.878152	534.960048	-391.430972	25.289628	488.037822	-399.325183	105.817142	536.904923	-349.675052	-75.765837	398.006334	-396.041715	-156.337708	381.021661	-361.421462	115.671255	282.788751	-358.761078	31.689190	281.824990	-422.203897	-262.446314	964.506858	-237.686398	-83.006477	79.126972	-436.792136	-83.044037	79.130391	-39.367038	
253	1.2650	442.881620	1437.463454	-100.075000	420.504706	1426.586522	-387.884923	411.245517	1464.739554	-245.000861	379.184527	1325.082569	-240.350152	464.860576	1115.256355	40.645548	688.403298	937.386646	-57.271734	467.224697	1121.145133	-524.313724	689.759967	926.896465	-447.429718	-140.834742	1202.204674	-246.728918	18.364069	1243.632029	-371.836878	30.095718	1231.535728	-93.780206	54.212743	1168.729772	-361.274989	41.640696	1175.481039	-113.281318	-114.245113	1238.943894	-194.056444	-99.661468	1250.026786	-301.885784	-30.952552	1114.522810	-51.983093	-35.347077	1096.883488	-418.927883	107.917466	1044.274987	-51.492301	192.372099	1023.683954	-63.874575	257.461819	968.115162	-62.883112	206.213700	1053.721147	-81.256281	370.935305	883.883246	-97.415455	365.053330	864.735655	-194.497453	329.017687	746.183543	-72.593415	322.326284	658.264834	-91.678000	278.004154	584.404970	-85.510588	338.179575	657.500300	-127.950722	229.096661	458.016114	-85.753948	161.153149	419.020417	-113.030609	449.216270	386.289775	-129.908102	371.524302	355.542645	-58.223467	30.540613	994.548057	-425.131356	104.837164	947.240698	-430.204176	131.829527	970.978976	-422.589923	145.965420	867.910909	-426.603945	249.078444	716.452895	-395.748181	238.351047	702.280034	-296.494228	146.675151	605.405661	-413.826521	101.873317	534.950461	-391.469381	25.280919	488.024089	-399.340932	105.815972	536.913125	-349.723186	-75.740003	397.930837	-396.034999	-156.290772	380.967527	-361.430499	115.706063	282.676535	-358.764624	31.707049	281.747769	-422.201979	-262.458229	964.502349	-237.666609	-83.015433	79.154446	-436.796040	-83.028095	79.116474	-39.361610	
